<?xml version="1.0" encoding="UTF-8"?>
<svg xmlns="http://www.w3.org/2000/svg" xmlns:xlink="http://www.w3.org/1999/xlink" width="55pt" height="43pt" viewBox="0 0 55 43" version="1.1">
<g id="surface1">
<path style=" stroke:none;fill-rule:nonzero;fill:rgb(0%,0%,0%);fill-opacity:1;" d="M 7.890625 0.484375 C 7.566406 0.589844 7.105469 0.921875 6.902344 1.203125 C 6.492188 1.761719 6.519531 0.597656 6.519531 17.207031 C 6.519531 31.027344 6.527344 32.363281 6.625 32.660156 C 6.816406 33.234375 7.136719 33.59375 7.699219 33.863281 C 8.027344 34.023438 8.152344 34.039062 9.378906 34.089844 C 10.964844 34.15625 12.648438 34.308594 13.238281 34.4375 C 13.472656 34.488281 13.84375 34.546875 14.058594 34.574219 C 14.808594 34.660156 16.820312 35.171875 17.945312 35.570312 C 19.183594 36.003906 20.519531 36.574219 20.941406 36.855469 C 21.066406 36.941406 21.191406 37.007812 21.222656 37.007812 C 21.347656 37.007812 22.804688 37.910156 23.507812 38.429688 C 24.140625 38.894531 25.175781 39.769531 25.550781 40.15625 C 25.75 40.363281 25.933594 40.527344 25.960938 40.527344 C 25.992188 40.527344 26.003906 33.453125 26 24.796875 C 25.980469 9.898438 25.972656 9.054688 25.859375 8.769531 C 25.792969 8.609375 25.722656 8.457031 25.695312 8.4375 C 25.667969 8.417969 25.625 8.359375 25.582031 8.296875 C 24.050781 5.773438 21.144531 3.375 18.140625 2.171875 C 17.628906 1.964844 16.007812 1.410156 15.710938 1.335938 C 14.546875 1.042969 13.972656 0.917969 13.433594 0.824219 C 11.082031 0.445312 8.515625 0.285156 7.890625 0.484375 Z M 7.890625 0.484375 "/>
<path style=" stroke:none;fill-rule:nonzero;fill:rgb(0%,0%,0%);fill-opacity:1;" d="M 44.515625 0.472656 C 42.871094 0.589844 41.132812 0.871094 39.644531 1.261719 C 38.984375 1.433594 37.613281 1.886719 37.238281 2.054688 C 37.09375 2.121094 36.910156 2.191406 36.832031 2.21875 C 36.753906 2.246094 36.480469 2.367188 36.226562 2.492188 C 35.960938 2.617188 35.746094 2.722656 35.726562 2.722656 C 35.644531 2.722656 34.183594 3.601562 33.652344 3.972656 C 32.753906 4.589844 32.203125 5.070312 31.40625 5.886719 C 30.445312 6.890625 29.449219 8.207031 29.160156 8.871094 C 29.085938 9.027344 29.074219 11.972656 29.054688 24.800781 C 29.046875 33.824219 29.0625 40.527344 29.09375 40.515625 C 29.144531 40.5 29.6875 40.015625 30.484375 39.273438 C 30.574219 39.1875 30.890625 38.941406 31.179688 38.722656 C 31.472656 38.507812 31.742188 38.308594 31.773438 38.28125 C 32.195312 37.96875 32.40625 37.832031 33.023438 37.464844 C 34.65625 36.488281 36.921875 35.53125 38.589844 35.113281 C 38.789062 35.066406 39.117188 34.980469 39.3125 34.925781 C 39.847656 34.78125 40.597656 34.628906 41.15625 34.546875 C 41.429688 34.507812 41.804688 34.449219 41.980469 34.414062 C 42.539062 34.304688 44.359375 34.144531 45.742188 34.089844 C 46.972656 34.039062 47.078125 34.023438 47.394531 33.859375 C 47.789062 33.660156 48.15625 33.300781 48.363281 32.921875 L 48.5 32.65625 L 48.5 1.761719 L 48.355469 1.496094 C 48.15625 1.117188 47.761719 0.730469 47.414062 0.570312 C 47.164062 0.457031 46.972656 0.433594 46.226562 0.425781 C 45.742188 0.417969 44.96875 0.4375 44.515625 0.472656 Z M 44.515625 0.472656 "/>
<path style=" stroke:none;fill-rule:nonzero;fill:rgb(0%,0%,0%);fill-opacity:1;" d="M 1.554688 7.316406 C 0.910156 7.46875 0.375 8 0.171875 8.695312 C 0.0742188 9.027344 0.0664062 10.53125 0.0664062 24.953125 C 0.0664062 40.648438 0.0664062 40.855469 0.199219 41.273438 C 0.460938 42.128906 1.171875 42.667969 2.054688 42.667969 C 2.304688 42.667969 2.695312 42.621094 2.917969 42.5625 C 3.59375 42.390625 4.558594 42.195312 4.9375 42.148438 C 5.136719 42.128906 5.40625 42.082031 5.539062 42.050781 C 6.644531 41.769531 10.074219 41.398438 12.347656 41.3125 C 16.265625 41.167969 19.398438 41.390625 22.34375 42.035156 C 22.773438 42.128906 23.132812 42.1875 23.152344 42.167969 C 23.21875 42.109375 22.085938 41.1875 21.269531 40.632812 C 20.238281 39.9375 19.089844 39.304688 18.273438 38.992188 C 18.097656 38.921875 17.886719 38.835938 17.8125 38.800781 C 17.496094 38.65625 15.652344 38.078125 15.082031 37.945312 C 12.808594 37.425781 11.761719 37.28125 9.484375 37.171875 C 8.144531 37.113281 7.394531 37.015625 6.875 36.839844 C 5.347656 36.316406 4.28125 35.191406 3.675781 33.484375 L 3.523438 33.054688 L 3.503906 20.144531 L 3.488281 7.242188 L 2.648438 7.25 C 2.1875 7.253906 1.691406 7.28125 1.554688 7.316406 Z M 1.554688 7.316406 "/>
<path style=" stroke:none;fill-rule:nonzero;fill:rgb(0%,0%,0%);fill-opacity:1;" d="M 51.59375 7.320312 C 51.574219 7.367188 51.554688 13.195312 51.550781 20.265625 L 51.53125 33.121094 L 51.371094 33.550781 C 50.882812 34.902344 50.148438 35.816406 49.046875 36.449219 C 48.125 36.980469 47.789062 37.039062 44.679688 37.238281 C 42.75 37.359375 42.144531 37.453125 40.003906 37.945312 C 38.839844 38.210938 37.113281 38.820312 35.957031 39.386719 C 35.46875 39.617188 35.054688 39.832031 35.035156 39.855469 C 35.015625 39.878906 34.894531 39.949219 34.769531 40.015625 C 34.195312 40.316406 32.964844 41.179688 32.464844 41.636719 C 32.339844 41.75 32.148438 41.921875 32.039062 42.015625 C 31.859375 42.167969 31.851562 42.1875 31.976562 42.1875 C 32.050781 42.1875 32.332031 42.128906 32.605469 42.0625 C 33.097656 41.929688 34.050781 41.765625 35.726562 41.523438 C 36.324219 41.433594 37.359375 41.359375 38.6875 41.3125 C 42.144531 41.1875 45.457031 41.378906 48.597656 41.890625 C 50.46875 42.195312 50.71875 42.242188 51.5625 42.429688 C 53.0625 42.753906 53.234375 42.753906 53.835938 42.488281 C 54.269531 42.300781 54.566406 41.988281 54.796875 41.492188 L 54.988281 41.09375 L 54.988281 8.851562 L 54.847656 8.523438 C 54.570312 7.867188 54.097656 7.449219 53.484375 7.316406 C 52.992188 7.207031 51.636719 7.214844 51.59375 7.320312 Z M 51.59375 7.320312 "/>
</g>
</svg>
